<svg xmlns="http://www.w3.org/2000/svg" width="58" height="38" viewBox="0 0 58 38" fill="none">
  <path fill-rule="evenodd" clip-rule="evenodd" d="M38.6263 0.390987C49.0102 0.390987 57.4278 8.72243 57.4278 19.0001C57.4278 29.2777 49.0102 37.6091 38.6263 37.6091C28.2426 37.6091 19.825 29.2777 19.825 19.0001C19.825 8.72243 28.2426 0.390987 38.6263 0.390987Z" fill="#0D418C"/>
  <path fill-rule="evenodd" clip-rule="evenodd" d="M18.8014 0.390987C29.1852 0.390987 37.6028 8.72243 37.6028 19.0001C37.6028 29.2777 29.1852 37.6091 18.8014 37.6091C8.41755 37.6091 0 29.2777 0 19.0001C0 8.72243 8.41755 0.390987 18.8014 0.390987Z" fill="#2E4DFF"/>
  <path fill-rule="evenodd" clip-rule="evenodd" d="M24.6717 23.5337C18.7193 20.2498 17.5753 13.6525 18.4449 7.39456C8.89058 25.4472 29.3578 36.0577 30.0733 25.0077C30.1065 24.4963 30.1656 23.992 30.2498 23.4963C31.4162 16.6245 37.3679 11.36 44.5968 11.173C45.1576 11.188 45.711 11.2332 46.2546 11.3074C47.5805 11.4886 48.8509 11.8416 50.042 12.3434C48.9286 11.3355 47.6606 10.4922 46.2774 9.85254C44.3297 8.95105 42.9515 8.46782 40.7575 8.46782C32.3009 8.46782 24.391 15.1719 24.6717 23.5337Z" fill="#19C3F4"/>
</svg>