<svg xmlns="http://www.w3.org/2000/svg" width="26" height="23" viewBox="0 0 26 23" fill="none">
  <g clip-path="url(#clip0_457_1119)">
    <path d="M0 1.27856C0.0352074 1.18702 0.0677066 1.09347 0.106976 1.00327C0.363584 0.417275 0.805708 0.075168 1.45637 0.0123593C1.55725 0.00300481 1.65881 0.00367298 1.76037 0.00367298C7.01576 0.00300481 12.2705 0.00300481 17.5258 0.00367298C17.6017 0.00367298 17.6782 0.00233663 17.754 0.00835023C17.9727 0.0257228 18.0926 0.152677 18.1156 0.359811C18.1372 0.552247 17.9815 0.717955 17.7628 0.74535C17.6545 0.758713 17.5434 0.755372 17.4338 0.755372C12.2292 0.756041 7.02523 0.763391 1.82063 0.746686C1.10091 0.744682 0.749512 1.11953 0.75222 1.81243C0.770501 6.39746 0.76373 10.9818 0.756282 15.5669C0.755605 15.798 0.818572 15.8542 1.04877 15.8542C9.01174 15.8482 16.9747 15.8482 24.9384 15.8548C25.1835 15.8548 25.2437 15.796 25.2437 15.5535C25.2356 10.9437 25.2376 6.33398 25.2376 1.72356C25.2376 1.05739 24.9357 0.756041 24.2667 0.755372C22.7772 0.754704 21.2876 0.755372 19.7988 0.754704C19.7229 0.754704 19.6464 0.757377 19.5706 0.753368C19.2882 0.737332 19.1346 0.597014 19.1413 0.363821C19.1481 0.139981 19.2964 0.00567752 19.5706 0.00500934C21.1955 0.00233663 22.8205 -0.00902238 24.4448 0.0090184C25.3432 0.0190411 25.998 0.701918 25.9986 1.5926C26.002 6.72888 26.002 11.8645 25.9986 17.0008C25.998 17.9402 25.3033 18.6017 24.3256 18.6031C21.8631 18.6057 19.4006 18.6037 16.9382 18.6037C16.6098 18.6037 16.6084 18.6044 16.6653 18.9231C16.7614 19.4657 16.8657 20.0062 16.9517 20.5501C16.9747 20.6971 17.0282 20.7492 17.1765 20.7452C17.3877 20.7392 17.6003 20.7392 17.8102 20.7606C18.3938 20.8201 18.8353 21.3139 18.8272 21.8838C18.8197 22.4598 18.3715 22.9369 17.7892 22.9903C17.7303 22.9957 17.6707 22.9977 17.6118 22.9977C14.54 22.9983 11.4681 22.999 8.39629 22.997C7.74428 22.9963 7.29335 22.6315 7.19247 22.0395C7.09091 21.4428 7.52491 20.8468 8.13494 20.7693C8.36853 20.7392 8.60754 20.7459 8.84451 20.7452C8.96367 20.7446 9.02461 20.7138 9.04628 20.5829C9.1431 19.9815 9.24533 19.3808 9.36043 18.7828C9.39158 18.6211 9.33471 18.6024 9.19794 18.6031C8.51275 18.6071 7.82688 18.6057 7.14169 18.6037C7.04961 18.6031 6.95346 18.599 6.86748 18.5717C6.69415 18.5162 6.60545 18.3812 6.61764 18.2075C6.6305 18.0244 6.73545 17.8935 6.92977 17.8654C7.03742 17.8494 7.14914 17.8547 7.25882 17.8547C12.9286 17.854 18.5983 17.8547 24.2681 17.854C24.7704 17.854 25.0711 17.6643 25.2004 17.2781C25.2634 17.0896 25.2315 16.8972 25.2397 16.7068C25.243 16.6333 25.2044 16.6019 25.132 16.6025C25.0643 16.6032 24.9966 16.6012 24.9289 16.6012C16.9828 16.6012 9.0368 16.6012 1.09008 16.6019C0.71295 16.6019 0.766438 16.5604 0.765761 16.9186C0.76373 17.5393 1.08601 17.8534 1.72313 17.854C2.82336 17.8554 3.9236 17.854 5.02315 17.8547C5.11591 17.8547 5.2107 17.8507 5.30142 17.8661C5.48152 17.8955 5.58647 18.009 5.6034 18.1875C5.62168 18.3759 5.53975 18.5169 5.35424 18.5737C5.26012 18.6024 5.1545 18.6044 5.0543 18.6044C4.03057 18.6064 3.00617 18.6057 1.98245 18.6057C0.807739 18.6057 0.433322 18.3618 0.00270826 17.3155C0 11.9694 0 6.62397 0 1.27856ZM12.9848 22.2473C14.4824 22.2473 15.9808 22.2473 17.4785 22.2466C17.5712 22.2466 17.666 22.2486 17.7567 22.2326C17.9504 22.1985 18.0526 22.0649 18.0573 21.8818C18.0621 21.6974 17.9639 21.5604 17.7723 21.5183C17.6748 21.4969 17.5705 21.4963 17.4696 21.4963C16.7337 21.4943 15.997 21.4976 15.2611 21.4943C14.9652 21.4929 14.7919 21.3446 14.7979 21.1134C14.8034 20.8922 14.9699 20.7526 15.2529 20.7452C15.5068 20.7386 15.7607 20.7392 16.0146 20.7452C16.1514 20.7486 16.2164 20.7205 16.1866 20.5628C16.0776 19.9802 15.9747 19.3969 15.8792 18.8122C15.8528 18.6505 15.7878 18.5997 15.6172 18.6004C13.8738 18.6071 12.1303 18.6084 10.3869 18.5997C10.1993 18.599 10.1411 18.6625 10.1147 18.8302C10.026 19.3908 9.93391 19.9508 9.82152 20.5074C9.78089 20.7092 9.83573 20.7486 10.028 20.7472C11.0775 20.7399 12.1269 20.7432 13.1764 20.7446C13.2861 20.7446 13.3991 20.7439 13.5034 20.7706C13.6923 20.8187 13.779 20.9557 13.7688 21.1461C13.7587 21.3259 13.6605 21.4448 13.4811 21.4789C13.3829 21.4976 13.2793 21.4949 13.1777 21.4949C11.6374 21.4956 10.0971 21.4956 8.55676 21.4963C8.464 21.4963 8.36989 21.4956 8.27848 21.5076C8.06114 21.5357 7.93792 21.6707 7.9413 21.8785C7.94401 22.0856 8.06791 22.2192 8.28728 22.2413C8.37124 22.25 8.45655 22.2473 8.54118 22.2473C10.0226 22.2473 11.504 22.2473 12.9848 22.2473Z" fill="white"/>
    <path d="M18.4682 13.1932C18.7898 12.5711 19.0891 11.9938 19.3877 11.4151C19.6639 10.8806 19.9402 10.3461 20.213 9.80951C20.2983 9.6418 20.408 9.50883 20.6132 9.51484C20.8041 9.52019 20.9077 9.64648 20.9889 9.80684C21.3065 10.4329 21.6349 11.0537 21.9497 11.6811C22.0147 11.8107 22.0905 11.8628 22.2395 11.8575C22.5861 11.8461 22.9328 11.8515 23.2795 11.8548C23.5598 11.8575 23.725 11.9951 23.7304 12.221C23.7358 12.4595 23.5692 12.6032 23.2734 12.6045C22.8163 12.6072 22.36 12.5992 21.903 12.6078C21.6701 12.6125 21.5245 12.5156 21.4229 12.3132C21.1609 11.792 20.8894 11.2762 20.6044 10.7236C20.5164 10.8879 20.4446 11.0156 20.3782 11.1452C19.8765 12.1187 19.3755 13.0923 18.8758 14.0665C18.7892 14.2355 18.6964 14.3965 18.4757 14.4026C18.2414 14.4086 18.1446 14.2415 18.0532 14.0638C17.6226 13.2232 17.1893 12.384 16.7559 11.5448C16.7153 11.4659 16.6699 11.3898 16.6043 11.2715C16.4228 11.6216 16.2502 11.9336 16.0992 12.2557C15.982 12.5056 15.8135 12.6212 15.5257 12.6098C15.0951 12.5925 14.6631 12.6065 14.2318 12.6045C13.9299 12.6032 13.7619 12.4702 13.7579 12.2363C13.7538 11.9918 13.9244 11.8555 14.2433 11.8535C14.5731 11.8515 14.9035 11.8448 15.2325 11.8568C15.3883 11.8622 15.4749 11.8154 15.544 11.6731C15.7525 11.2448 15.9793 10.8258 16.1946 10.4002C16.2847 10.2218 16.3835 10.0527 16.6158 10.0574C16.8331 10.0621 16.9293 10.2211 17.0166 10.3922C17.4506 11.2401 17.8893 12.0867 18.326 12.9332C18.366 13.0074 18.4073 13.0802 18.4682 13.1932Z" fill="white"/>
    <path d="M23.7373 5.55886C23.7373 6.33462 23.7387 7.11037 23.7366 7.88546C23.7353 8.27901 23.6175 8.39461 23.2254 8.39528C22.6506 8.39661 22.0765 8.39661 21.5016 8.39528C21.134 8.39461 21.0047 8.27634 21.004 7.92354C21.0013 6.33929 21.0013 4.75438 21.004 3.17013C21.0047 2.816 21.134 2.69572 21.501 2.69439C22.0839 2.69171 22.6669 2.69171 23.2505 2.69439C23.6087 2.69639 23.7353 2.82201 23.7366 3.18149C23.7393 3.97461 23.7373 4.7664 23.7373 5.55886ZM22.9756 5.54082C22.9756 4.92343 22.9702 4.30603 22.979 3.68863C22.9817 3.5109 22.9411 3.42938 22.7413 3.44208C22.4888 3.45811 22.2342 3.4541 21.981 3.44275C21.8165 3.4354 21.7603 3.48818 21.7609 3.65456C21.7664 4.92276 21.7657 6.19096 21.7616 7.45983C21.7609 7.59747 21.7982 7.6536 21.9465 7.64759C22.2166 7.63756 22.4881 7.63355 22.7576 7.64892C22.9445 7.65961 22.9803 7.58478 22.9783 7.41907C22.9702 6.79232 22.9756 6.16624 22.9756 5.54082Z" fill="white"/>
    <path d="M13.7573 6.04568C13.7573 5.41225 13.7553 4.77815 13.758 4.14471C13.7594 3.82265 13.8927 3.69102 14.2211 3.68902C14.821 3.68634 15.4209 3.68634 16.0208 3.68902C16.3566 3.69035 16.4947 3.82666 16.4954 4.16476C16.4981 5.41559 16.4974 6.66641 16.4954 7.91724C16.4947 8.26737 16.36 8.39499 16.0004 8.39633C15.4175 8.39833 14.8345 8.39766 14.2516 8.39633C13.8778 8.39566 13.7587 8.27405 13.7573 7.8972C13.7566 7.2798 13.7573 6.66241 13.7573 6.04568ZM15.7344 6.06505C15.7344 5.58998 15.7296 5.11424 15.7371 4.63916C15.7398 4.4915 15.7032 4.42869 15.54 4.43604C15.2618 4.44807 14.9821 4.44606 14.7039 4.43671C14.561 4.43203 14.515 4.4768 14.5156 4.61979C14.5211 5.5706 14.5217 6.52142 14.515 7.47157C14.5136 7.62458 14.5759 7.65064 14.7093 7.64663C14.9713 7.63861 15.234 7.63327 15.4947 7.64797C15.6802 7.65866 15.7452 7.60921 15.7384 7.41544C15.7242 6.96643 15.7344 6.51541 15.7344 6.06505Z" fill="white"/>
    <path d="M20.125 6.59295C20.125 7.02726 20.1271 7.46158 20.1244 7.89589C20.1223 8.27475 20.0032 8.39502 19.6294 8.39569C19.0458 8.39702 18.4615 8.39769 17.8779 8.39569C17.5278 8.39435 17.3931 8.27274 17.3917 7.93465C17.387 7.03261 17.3877 6.13057 17.3917 5.22853C17.3931 4.89511 17.5177 4.76949 17.8515 4.76615C18.4608 4.76014 19.0702 4.76013 19.6795 4.76682C19.9978 4.77016 20.121 4.89778 20.1244 5.2145C20.1284 5.6742 20.125 6.13391 20.125 6.59295ZM19.3633 6.61433C19.3633 6.30563 19.3586 5.99693 19.3654 5.6889C19.3681 5.55928 19.3207 5.51183 19.1893 5.51518C18.9023 5.52186 18.6145 5.52119 18.3274 5.51518C18.1961 5.5125 18.1487 5.56195 18.15 5.69091C18.1541 6.29093 18.1541 6.89162 18.15 7.49164C18.1494 7.61325 18.1974 7.64933 18.3153 7.64666C18.6023 7.64065 18.8901 7.63797 19.1772 7.64733C19.3193 7.65201 19.3708 7.60791 19.3661 7.46492C19.3566 7.18161 19.3633 6.89763 19.3633 6.61433Z" fill="white"/>
    <path d="M6.95821 7.69669C5.5797 7.69669 4.2012 7.69669 2.82269 7.69669C2.74686 7.69669 2.66967 7.70204 2.59452 7.69201C2.39004 7.66529 2.27359 7.54167 2.2614 7.34323C2.24989 7.15547 2.34874 7.01983 2.53358 6.96971C2.62905 6.94365 2.73399 6.94566 2.83488 6.94566C5.57496 6.94432 8.31505 6.94499 11.0551 6.94499C11.4634 6.94499 11.6455 7.06526 11.6415 7.32986C11.6374 7.58778 11.4681 7.69669 11.0687 7.69669C9.69761 7.69669 8.32791 7.69669 6.95821 7.69669Z" fill="white"/>
    <path d="M6.94673 11.664C5.57703 11.664 4.20733 11.664 2.83694 11.664C2.75231 11.664 2.667 11.6673 2.58372 11.6566C2.38873 11.6326 2.27904 11.511 2.26279 11.3252C2.24587 11.1394 2.33388 10.9978 2.52076 10.9443C2.61622 10.9169 2.72049 10.9136 2.8207 10.9136C5.57703 10.9123 8.33404 10.9123 11.0904 10.9136C11.1825 10.9136 11.2786 10.9149 11.3659 10.939C11.565 10.9931 11.6564 11.1334 11.6361 11.3346C11.6165 11.525 11.502 11.6359 11.3091 11.6579C11.2258 11.6673 11.1405 11.664 11.0558 11.664C9.68614 11.664 8.31644 11.664 6.94673 11.664Z" fill="white"/>
    <path d="M6.93118 3.44547C5.5696 3.44547 4.20802 3.44547 2.84712 3.4448C2.75436 3.4448 2.65957 3.44881 2.56885 3.43411C2.37588 3.4027 2.27161 3.27575 2.26146 3.09C2.25198 2.91493 2.33661 2.78063 2.5113 2.72651C2.59796 2.69978 2.6941 2.6951 2.78551 2.6951C5.55877 2.69377 8.33271 2.69377 11.106 2.69377C11.2075 2.69377 11.3091 2.68709 11.4059 2.72784C11.5738 2.79934 11.6524 2.92629 11.6381 3.10403C11.6239 3.28377 11.5217 3.39736 11.3436 3.4321C11.2536 3.44948 11.1581 3.4448 11.0653 3.4448C9.68751 3.44613 8.30969 3.44547 6.93118 3.44547Z" fill="white"/>
    <path d="M5.30616 5.44144C4.45239 5.44144 3.59928 5.4421 2.7455 5.44077C2.42728 5.4401 2.2526 5.30312 2.25666 5.06258C2.26072 4.82738 2.4415 4.68974 2.75837 4.68974C4.45712 4.6884 6.15588 4.68907 7.85396 4.68974C8.18505 4.68974 8.37395 4.83339 8.36989 5.07461C8.36582 5.30914 8.18776 5.4401 7.86683 5.44077C7.01305 5.4421 6.15994 5.44144 5.30616 5.44144Z" fill="white"/>
    <path d="M8.58377 9.69728C7.72187 9.69728 6.85928 9.69995 5.99738 9.69594C5.64734 9.6946 5.45099 9.43268 5.58572 9.16006C5.66088 9.00905 5.78952 8.94558 5.95608 8.94558C7.71442 8.94558 9.47276 8.94424 11.2311 8.94758C11.487 8.94825 11.6441 9.10327 11.6414 9.32577C11.6387 9.54694 11.4809 9.6946 11.2216 9.69594C10.3421 9.69995 9.46328 9.69728 8.58377 9.69728Z" fill="white"/>
    <path d="M4.65613 13.6558C4.01359 13.6558 3.37174 13.6572 2.7292 13.6552C2.434 13.6538 2.25864 13.5122 2.25661 13.2817C2.25458 13.0498 2.42994 12.9048 2.72378 12.9048C4.01698 12.9035 5.31018 12.9035 6.60337 12.9048C6.90534 12.9048 7.06987 13.0391 7.0719 13.2763C7.07325 13.5129 6.90602 13.6538 6.60946 13.6552C5.95745 13.6578 5.30679 13.6558 4.65613 13.6558Z" fill="white"/>
    <path d="M3.41026 9.69706C3.16584 9.69706 2.92075 9.70174 2.67633 9.69573C2.42243 9.68971 2.2579 9.53804 2.25587 9.32288C2.25451 9.10706 2.41972 8.95004 2.67226 8.94737C3.16178 8.94202 3.65062 8.94202 4.14014 8.94737C4.39201 8.95004 4.5606 9.10573 4.56195 9.31887C4.56331 9.53269 4.3954 9.68905 4.1442 9.69573C3.89978 9.70174 3.65469 9.69706 3.41026 9.69706Z" fill="white"/>
    <path d="M10.4872 5.44137C10.2427 5.44137 9.99765 5.44672 9.75323 5.44003C9.51761 5.43402 9.35647 5.28101 9.35308 5.07521C9.3497 4.87208 9.50881 4.69969 9.74104 4.69502C10.2468 4.68499 10.7533 4.68499 11.2597 4.69502C11.4967 4.69969 11.6443 4.8634 11.6409 5.07588C11.6375 5.29103 11.4885 5.43402 11.2462 5.44003C10.9936 5.44605 10.7404 5.4407 10.4872 5.44137Z" fill="white"/>
  </g>
  <defs>
    <clipPath id="clip0_457_1119">
      <rect width="26" height="23" fill="white"/>
    </clipPath>
  </defs>
</svg>