<svg xmlns="http://www.w3.org/2000/svg" width="29" height="41" viewBox="0 0 29 41" fill="none">
  <path d="M9.79879 27.3049C9.79879 27.1304 9.79879 27.0123 9.79879 26.895C9.79879 25.0394 9.8155 23.1829 9.79127 21.3272C9.77958 20.4302 10.0227 19.7086 10.8329 19.251C10.0861 18.5676 9.57159 17.7548 9.29761 16.7805C8.51325 13.9871 10.2423 10.9869 12.9571 10.4355C15.8072 9.8572 18.4785 11.8405 18.7976 14.772C19.1509 18.0136 16.64 20.689 13.5059 20.4154C13.4165 20.4076 13.2536 20.3104 13.2795 20.5457C13.3848 21.5087 13.3004 22.4752 13.3271 23.4399C13.3305 23.5467 13.3271 23.6544 13.3271 23.7881C13.6345 23.7021 13.911 23.5997 14.2059 23.617C14.7355 23.6483 15.1723 23.8741 15.5031 24.3048C15.6067 24.4394 15.661 24.4975 15.8431 24.3864C16.7661 23.822 17.8988 24.2084 18.3306 25.2313C18.4192 25.4397 18.4735 25.4996 18.7015 25.4093C19.7816 24.9795 20.9552 25.7445 21.0521 26.9463C21.0947 27.4751 21.0771 28.0091 21.0713 28.5406C21.0696 28.7368 21.1264 28.8323 21.3185 28.7932C21.4956 28.7576 21.7729 28.9252 21.7938 28.5536C21.7988 28.4668 21.7955 28.3799 21.7955 28.2931C21.7955 23.5606 21.7955 18.829 21.7955 14.0965C21.7955 13.9879 21.7838 13.8768 21.803 13.7717C21.8506 13.5043 22.0043 13.3454 22.2766 13.3497C22.5339 13.354 22.6792 13.5112 22.7268 13.763C22.7469 13.8681 22.7352 13.9792 22.7352 14.0878C22.7352 18.8637 22.7352 23.6387 22.7352 28.4146C22.7352 29.342 22.3259 29.7858 21.438 29.7623C21.1206 29.7536 21.0663 29.8631 21.0679 30.1635C21.0721 31.0735 21.1256 31.987 20.9811 32.8927C20.9075 33.3538 20.9059 33.3538 21.3519 33.3538C21.8949 33.3538 22.4378 33.3538 22.9808 33.3538C23.7209 33.3529 23.9882 33.0707 23.9882 32.2883C23.9882 25.2226 23.9882 18.1569 23.9882 11.0911C23.9882 10.0387 23.9898 8.98538 23.9873 7.93294C23.9857 7.29036 23.6841 6.97863 23.0626 6.97863C16.9966 6.97776 10.9306 6.97776 4.86463 6.97863C4.24316 6.97863 3.94161 7.29036 3.94161 7.93468C3.94078 16.0859 3.94078 24.237 3.94161 32.3882C3.94161 33.0499 4.24065 33.3538 4.88718 33.3538C6.16103 33.3555 7.43487 33.3564 8.70871 33.3521C8.98019 33.3512 9.18233 33.4476 9.25751 33.7307C9.33603 34.0311 9.12303 34.3229 8.79976 34.3246C7.3906 34.3324 5.97976 34.3533 4.57143 34.3133C3.72026 34.2899 3.04282 33.5066 3.0044 32.6192C2.99855 32.5106 3.00022 32.4021 3.00022 32.2936C3.00022 24.2075 3.00022 16.1215 3.00022 8.03541C3.00022 6.71204 3.681 6 4.94565 6C10.9599 6 16.9732 6 22.9875 6C24.2379 6 24.9279 6.71378 24.9279 8.00849C24.9279 16.1162 24.9279 24.224 24.9279 32.3318C24.9279 33.6056 24.2321 34.329 23.0083 34.3298C22.2257 34.3307 21.4421 34.335 20.6595 34.3255C20.4907 34.3238 20.408 34.3811 20.3203 34.5322C20.0054 35.0723 19.9018 35.6454 19.9336 36.2723C19.9636 36.8689 19.8158 37 19.2453 37C16.6458 37 14.0455 37 11.446 37C10.9206 37 10.7385 36.8472 10.7853 36.3088C10.8454 35.6098 10.6374 35.0488 10.2482 34.4818C9.24415 33.0152 8.29106 31.5103 7.32712 30.015C7.20934 29.8327 7.08571 29.7467 6.87271 29.7675C6.67641 29.7866 6.47594 29.7771 6.27797 29.7693C5.6707 29.7467 5.21629 29.2769 5.19792 28.6465C5.18873 28.3104 5.19541 27.9735 5.19541 27.6375C5.19541 21.6459 5.19541 15.6552 5.19541 9.66356C5.19541 8.69274 5.59302 8.27941 6.52856 8.27941C11.4878 8.27941 16.447 8.27941 21.4062 8.27941C22.3384 8.27941 22.7369 8.69448 22.7369 9.66616C22.7369 10.3608 22.7385 11.0555 22.736 11.7502C22.7344 12.1297 22.5573 12.3572 22.2708 12.3606C21.9834 12.3641 21.7988 12.1349 21.798 11.7589C21.7955 11.0642 21.7821 10.3695 21.8038 9.67485C21.8139 9.34835 21.7195 9.24762 21.3987 9.24849C17.5672 9.25891 13.7356 9.25543 9.9032 9.25543C8.76552 9.25543 7.62699 9.26325 6.4893 9.25022C6.21532 9.24675 6.12928 9.33619 6.13012 9.62275C6.1368 15.8966 6.13513 22.1695 6.13597 28.4433C6.13597 28.5683 6.09754 28.7429 6.25709 28.7724C6.43751 28.8063 6.62963 28.7811 6.81591 28.7681C6.83512 28.7663 6.86268 28.6752 6.86352 28.6248C6.89777 27.4152 8.2234 26.5616 9.55238 27.1877C9.61586 27.2189 9.68101 27.2493 9.79879 27.3049ZM10.7385 24.613C10.7385 25.7957 10.7368 26.9784 10.7393 28.1611C10.7402 28.432 10.7226 28.689 10.4353 28.8106C10.158 28.9278 9.9859 28.7576 9.81299 28.5701C9.57994 28.3165 9.31097 28.1125 8.98186 28.0117C8.55251 27.8797 8.14655 27.9952 7.93605 28.3052C7.72973 28.6092 7.75646 28.9487 8.02293 29.3577C9.08794 30.991 10.1429 32.6313 11.2238 34.2543C11.5412 34.7301 11.8144 35.1947 11.7133 35.8025C11.6866 35.9667 11.7501 36.0292 11.9188 36.0292C14.2042 36.024 16.4896 36.024 18.7758 36.0301C18.9604 36.0309 19.0172 35.9615 18.9989 35.7852C18.9496 35.3128 19.0933 34.8873 19.3004 34.4775C19.465 34.151 19.6212 33.8201 19.7874 33.4954C19.9862 33.1055 20.1065 32.6939 20.109 32.2519C20.119 30.5708 20.1315 28.8888 20.1299 27.2076C20.129 26.6589 19.7924 26.282 19.3313 26.262C18.8986 26.2438 18.5662 26.585 18.4868 27.1304C18.4359 27.476 18.263 27.6479 17.9865 27.6297C17.7175 27.6114 17.5538 27.4074 17.5471 27.0626C17.5404 26.7153 17.5446 26.368 17.5454 26.0215C17.5454 25.8678 17.5237 25.7193 17.4544 25.5812C17.2907 25.2521 16.924 25.0524 16.5974 25.1167C16.2198 25.1905 15.965 25.4935 15.9099 25.9364C15.8631 26.3089 15.6961 26.4869 15.4087 26.4713C15.1264 26.4557 14.9727 26.2499 14.9677 25.8782C14.9652 25.7158 14.9752 25.5517 14.9618 25.3902C14.9284 24.9925 14.6436 24.6773 14.2727 24.6139C13.9144 24.5522 13.5644 24.7528 13.404 25.1054C13.3438 25.2365 13.3438 25.378 13.3221 25.5161C13.2695 25.8565 13.0039 26.0415 12.7149 25.9451C12.4517 25.8565 12.3866 25.6464 12.3874 25.3841C12.3908 23.9843 12.3891 22.5846 12.3882 21.1857C12.3882 20.4997 12.0675 20.0742 11.5538 20.0742C11.0551 20.0742 10.7419 20.4918 10.7402 21.1683C10.7377 22.3128 10.7393 23.4633 10.7385 24.613ZM10.0519 15.3773C10.0252 17.5768 11.7668 19.4247 13.9027 19.4655C16.0586 19.5071 17.842 17.6984 17.8737 15.4389C17.9046 13.2003 16.183 11.362 14.0246 11.329C11.8353 11.2969 10.0795 13.0857 10.0519 15.3773Z" fill="white"/>
  <path d="M13.9761 18.6198C12.5645 18.6285 11.2789 17.6377 10.8805 16.2336C10.7794 15.8784 10.8905 15.6049 11.1687 15.5215C11.4351 15.4425 11.659 15.5962 11.7718 15.9366C12.1234 16.9925 12.9688 17.6481 13.9711 17.6429C14.9777 17.6377 15.798 16.9916 16.1588 15.9201C16.2716 15.5849 16.5021 15.4338 16.7703 15.5189C17.0342 15.6023 17.1453 15.8732 17.0526 16.2084C16.6667 17.616 15.397 18.6111 13.9761 18.6198Z" fill="white"/>
  <path d="M13.1717 14.3084C13.1717 14.4378 13.1842 14.5689 13.1692 14.6966C13.1374 14.9701 12.9838 15.1281 12.7139 15.129C12.445 15.1307 12.2813 14.977 12.2545 14.7026C12.2328 14.4777 12.2353 14.2494 12.2462 14.0236C12.2612 13.7153 12.45 13.5191 12.7073 13.5173C12.9654 13.5156 13.1517 13.711 13.1759 14.0175C13.1834 14.1139 13.1767 14.212 13.1767 14.3084C13.175 14.3075 13.1734 14.3075 13.1717 14.3084Z" fill="white"/>
  <path d="M15.6943 14.3282C15.6859 14.468 15.6918 14.6104 15.6659 14.7467C15.6174 15.0055 15.452 15.1357 15.2006 15.1288C14.9625 15.1227 14.7971 14.9898 14.7696 14.745C14.7412 14.4897 14.7437 14.2274 14.7579 13.9704C14.7729 13.6934 14.9408 13.5406 15.2023 13.5189C15.4487 13.498 15.6475 13.6917 15.6776 13.9721C15.6901 14.0894 15.6801 14.2092 15.6801 14.3282C15.6842 14.3282 15.6892 14.3282 15.6943 14.3282Z" fill="white"/>
</svg>